<?xml version="1.0" encoding="UTF-8" standalone="no"?><svg xmlns="http://www.w3.org/2000/svg" xmlns:xlink="http://www.w3.org/1999/xlink" clip-rule="evenodd" stroke-miterlimit="10" viewBox="0 0 796 50"><desc>SVG generated by Keynote</desc><defs></defs><g transform="matrix(1.00, 0.00, -0.00, -1.00, 0.0, 50.0)"><text xml:space="preserve" font-family="Cantarell-Bold,Cantarell" font-weight="bold" font-size="36.0" fill="#DFDFDF" transform="matrix(1.00, 0.00, -0.00, -1.00, 0.3, 11.7)">•</text><text xml:space="preserve" font-family="Cantarell-Bold,Cantarell" font-weight="bold" font-size="36.0" fill="#DFDFDF" transform="matrix(1.00, 0.00, -0.00, -1.00, 18.3, 11.5)">S</text><text xml:space="preserve" font-family="Cantarell-Bold,Cantarell" font-weight="bold" font-size="36.0" fill="#DFDFDF" transform="matrix(1.00, 0.00, -0.00, -1.00, 45.1, 11.5)">e</text><text xml:space="preserve" font-family="Cantarell-Bold,Cantarell" font-weight="bold" font-size="36.0" fill="#DFDFDF" transform="matrix(1.00, 0.00, -0.00, -1.00, 67.4, 11.5)">s</text><text xml:space="preserve" font-family="Cantarell-Bold,Cantarell" font-weight="bold" font-size="36.0" fill="#DFDFDF" transform="matrix(1.00, 0.00, -0.00, -1.00, 88.1, 11.5)">s</text><text xml:space="preserve" font-family="Cantarell-Bold,Cantarell" font-weight="bold" font-size="36.0" fill="#DFDFDF" transform="matrix(1.00, 0.00, -0.00, -1.00, 108.9, 11.5)">i</text><text xml:space="preserve" font-family="Cantarell-Bold,Cantarell" font-weight="bold" font-size="36.0" fill="#DFDFDF" transform="matrix(1.00, 0.00, -0.00, -1.00, 119.5, 11.5)">o</text><text xml:space="preserve" font-family="Cantarell-Bold,Cantarell" font-weight="bold" font-size="36.0" fill="#DFDFDF" transform="matrix(1.00, 0.00, -0.00, -1.00, 143.7, 11.5)">n</text><text xml:space="preserve" font-family="Cantarell-Bold,Cantarell" font-weight="bold" font-size="36.0" fill="#DFDFDF" transform="matrix(1.00, 0.00, -0.00, -1.00, 167.1, 11.5)">:</text><text xml:space="preserve" font-family="Cantarell-Bold,Cantarell" font-weight="bold" font-size="36.0" fill="#DFDFDF" transform="matrix(1.00, 0.00, -0.00, -1.00, 177.1, 11.5)">:</text><text xml:space="preserve" font-family="Cantarell-Bold,Cantarell" font-weight="bold" font-size="36.0" fill="#DFDFDF" transform="matrix(1.00, 0.00, -0.00, -1.00, 187.1, 11.5)">g</text><text xml:space="preserve" font-family="Cantarell-Bold,Cantarell" font-weight="bold" font-size="36.0" fill="#DFDFDF" transform="matrix(1.00, 0.00, -0.00, -1.00, 210.7, 11.5)">e</text><text xml:space="preserve" font-family="Cantarell-Bold,Cantarell" font-weight="bold" font-size="36.0" fill="#DFDFDF" transform="matrix(1.00, 0.00, -0.00, -1.00, 233.0, 11.5)">t</text><text xml:space="preserve" font-family="Cantarell-Regular,Cantarell" font-size="36.0" fill="#DFDFDF" transform="matrix(1.00, 0.00, -0.00, -1.00, 249.3, 11.5)">(</text><text xml:space="preserve" font-family="Cantarell-Regular,Cantarell" font-size="36.0" fill="#DFDFDF" transform="matrix(1.00, 0.00, -0.00, -1.00, 262.4, 11.5)">k</text><text xml:space="preserve" font-family="Cantarell-Regular,Cantarell" font-size="36.0" fill="#DFDFDF" transform="matrix(1.00, 0.00, -0.00, -1.00, 281.3, 11.5)">e</text><text xml:space="preserve" font-family="Cantarell-Regular,Cantarell" font-size="36.0" fill="#DFDFDF" transform="matrix(1.00, 0.00, -0.00, -1.00, 300.6, 11.5)">y</text><text xml:space="preserve" font-family="Cantarell-Regular,Cantarell" font-size="36.0" fill="#DFDFDF" transform="matrix(1.00, 0.00, -0.00, -1.00, 319.3, 11.5)">)</text><text xml:space="preserve" font-family="Cantarell-Regular,Cantarell" font-size="36.0" fill="#DFDFDF" transform="matrix(1.00, 0.00, -0.00, -1.00, 332.3, 11.5)"> </text><text xml:space="preserve" font-family="Cantarell-Regular,Cantarell" font-size="36.0" fill="#A6AAA8" transform="matrix(1.00, 0.00, -0.00, -1.00, 342.1, 11.5)">-</text><text xml:space="preserve" font-family="Cantarell-Regular,Cantarell" font-size="36.0" fill="#A6AAA8" transform="matrix(1.00, 0.00, -0.00, -1.00, 363.4, 11.5)"> </text><text xml:space="preserve" font-family="Cantarell-Regular,Cantarell" font-size="36.0" fill="#A6AAA8" transform="matrix(1.00, 0.00, -0.00, -1.00, 373.3, 11.5)">R</text><text xml:space="preserve" font-family="Cantarell-Regular,Cantarell" font-size="36.0" fill="#A6AAA8" transform="matrix(1.00, 0.00, -0.00, -1.00, 398.5, 11.5)">e</text><text xml:space="preserve" font-family="Cantarell-Regular,Cantarell" font-size="36.0" fill="#A6AAA8" transform="matrix(1.00, 0.00, -0.00, -1.00, 417.9, 11.5)">t</text><text xml:space="preserve" font-family="Cantarell-Regular,Cantarell" font-size="36.0" fill="#A6AAA8" transform="matrix(1.00, 0.00, -0.00, -1.00, 431.5, 11.5)">u</text><text xml:space="preserve" font-family="Cantarell-Regular,Cantarell" font-size="36.0" fill="#A6AAA8" transform="matrix(1.00, 0.00, -0.00, -1.00, 452.2, 11.5)">r</text><text xml:space="preserve" font-family="Cantarell-Regular,Cantarell" font-size="36.0" fill="#A6AAA8" transform="matrix(1.00, 0.00, -0.00, -1.00, 466.3, 11.5)">n</text><text xml:space="preserve" font-family="Cantarell-Regular,Cantarell" font-size="36.0" fill="#A6AAA8" transform="matrix(1.00, 0.00, -0.00, -1.00, 487.0, 11.5)">s</text><text xml:space="preserve" font-family="Cantarell-Regular,Cantarell" font-size="36.0" fill="#A6AAA8" transform="matrix(1.00, 0.00, -0.00, -1.00, 504.9, 11.5)"> </text><text xml:space="preserve" font-family="Cantarell-Regular,Cantarell" font-size="36.0" fill="#A6AAA8" transform="matrix(1.00, 0.00, -0.00, -1.00, 514.7, 11.5)">t</text><text xml:space="preserve" font-family="Cantarell-Regular,Cantarell" font-size="36.0" fill="#A6AAA8" transform="matrix(1.00, 0.00, -0.00, -1.00, 528.3, 11.5)">h</text><text xml:space="preserve" font-family="Cantarell-Regular,Cantarell" font-size="36.0" fill="#A6AAA8" transform="matrix(1.00, 0.00, -0.00, -1.00, 549.3, 11.5)">e</text><text xml:space="preserve" font-family="Cantarell-Regular,Cantarell" font-size="36.0" fill="#A6AAA8" transform="matrix(1.00, 0.00, -0.00, -1.00, 568.6, 11.5)"> </text><text xml:space="preserve" font-family="Cantarell-Regular,Cantarell" font-size="36.0" fill="#A6AAA8" transform="matrix(1.00, 0.00, -0.00, -1.00, 578.5, 11.5)">v</text><text xml:space="preserve" font-family="Cantarell-Regular,Cantarell" font-size="36.0" fill="#A6AAA8" transform="matrix(1.00, 0.00, -0.00, -1.00, 595.9, 11.5)">a</text><text xml:space="preserve" font-family="Cantarell-Regular,Cantarell" font-size="36.0" fill="#A6AAA8" transform="matrix(1.00, 0.00, -0.00, -1.00, 614.7, 11.5)">l</text><text xml:space="preserve" font-family="Cantarell-Regular,Cantarell" font-size="36.0" fill="#A6AAA8" transform="matrix(1.00, 0.00, -0.00, -1.00, 624.7, 11.5)">u</text><text xml:space="preserve" font-family="Cantarell-Regular,Cantarell" font-size="36.0" fill="#A6AAA8" transform="matrix(1.00, 0.00, -0.00, -1.00, 645.3, 11.5)">e</text><text xml:space="preserve" font-family="Cantarell-Regular,Cantarell" font-size="36.0" fill="#A6AAA8" transform="matrix(1.00, 0.00, -0.00, -1.00, 664.7, 11.5)"> </text><text xml:space="preserve" font-family="Cantarell-Regular,Cantarell" font-size="36.0" fill="#A6AAA8" transform="matrix(1.00, 0.00, -0.00, -1.00, 674.6, 11.5)">f</text><text xml:space="preserve" font-family="Cantarell-Regular,Cantarell" font-size="36.0" fill="#A6AAA8" transform="matrix(1.00, 0.00, -0.00, -1.00, 689.0, 11.5)">o</text><text xml:space="preserve" font-family="Cantarell-Regular,Cantarell" font-size="36.0" fill="#A6AAA8" transform="matrix(1.00, 0.00, -0.00, -1.00, 710.3, 11.5)">r</text><text xml:space="preserve" font-family="Cantarell-Regular,Cantarell" font-size="36.0" fill="#A6AAA8" transform="matrix(1.00, 0.00, -0.00, -1.00, 724.4, 11.5)"> </text><text xml:space="preserve" font-family="Cantarell-Oblique,Cantarell" font-style="italic" font-size="36.0" fill="#A6AAA8" transform="matrix(1.00, 0.00, -0.00, -1.00, 734.1, 11.5)">k</text><text xml:space="preserve" font-family="Cantarell-Oblique,Cantarell" font-style="italic" font-size="36.0" fill="#A6AAA8" transform="matrix(1.00, 0.00, -0.00, -1.00, 752.8, 11.5)">e</text><text xml:space="preserve" font-family="Cantarell-Oblique,Cantarell" font-style="italic" font-size="36.0" fill="#A6AAA8" transform="matrix(1.00, 0.00, -0.00, -1.00, 771.9, 11.5)">y</text></g></svg>