<?xml version="1.0" encoding="UTF-8" standalone="no"?><svg xmlns="http://www.w3.org/2000/svg" xmlns:xlink="http://www.w3.org/1999/xlink" clip-rule="evenodd" stroke-miterlimit="10" viewBox="0 0 1116 65"><desc>SVG generated by Keynote</desc><defs></defs><g transform="matrix(1.00, 0.00, -0.00, -1.00, 0.0, 65.0)"><g><clipPath id="clip0x6000008a24c0"><path d="M 0.0 0.0 L 1116.0 0.0 L 1116.0 65.0 L 0.0 65.0 Z M 0.0 0.0 "></path></clipPath><g clip-path="url(#clip0x6000008a24c0)"><text xml:space="preserve" font-family="Novecentosanswide-Medium,Novecento sans wide" font-size="84.0" fill="#FEFFFF" transform="matrix(1.00, 0.00, -0.00, -1.00, -0.9, 3.0)">S</text><text xml:space="preserve" font-family="Novecentosanswide-Medium,Novecento sans wide" font-size="84.0" fill="#FEFFFF" transform="matrix(1.00, 0.00, -0.00, -1.00, 46.7, 3.0)">E</text><text xml:space="preserve" font-family="Novecentosanswide-Medium,Novecento sans wide" font-size="84.0" fill="#FEFFFF" transform="matrix(1.00, 0.00, -0.00, -1.00, 94.2, 3.0)">S</text><text xml:space="preserve" font-family="Novecentosanswide-Medium,Novecento sans wide" font-size="84.0" fill="#FEFFFF" transform="matrix(1.00, 0.00, -0.00, -1.00, 141.8, 3.0)">S</text><text xml:space="preserve" font-family="Novecentosanswide-Medium,Novecento sans wide" font-size="84.0" fill="#FEFFFF" transform="matrix(1.00, 0.00, -0.00, -1.00, 189.4, 3.0)">I</text><text xml:space="preserve" font-family="Novecentosanswide-Medium,Novecento sans wide" font-size="84.0" fill="#FEFFFF" transform="matrix(1.00, 0.00, -0.00, -1.00, 207.3, 3.0)">O</text><text xml:space="preserve" font-family="Novecentosanswide-Medium,Novecento sans wide" font-size="84.0" fill="#FEFFFF" transform="matrix(1.00, 0.00, -0.00, -1.00, 271.2, 3.0)">N</text><text xml:space="preserve" font-family="Novecentosanswide-Medium,Novecento sans wide" font-size="84.0" fill="#FEFFFF" transform="matrix(1.00, 0.00, -0.00, -1.00, 329.8, 3.0)"> </text><text xml:space="preserve" font-family="Novecentosanswide-Medium,Novecento sans wide" font-size="84.0" fill="#FEFFFF" transform="matrix(1.00, 0.00, -0.00, -1.00, 347.7, 3.0)">F</text><text xml:space="preserve" font-family="Novecentosanswide-Medium,Novecento sans wide" font-size="84.0" fill="#FEFFFF" transform="matrix(1.00, 0.00, -0.00, -1.00, 384.5, 3.0)">A</text><text xml:space="preserve" font-family="Novecentosanswide-Medium,Novecento sans wide" font-size="84.0" fill="#FEFFFF" transform="matrix(1.00, 0.00, -0.00, -1.00, 441.0, 3.0)">C</text><text xml:space="preserve" font-family="Novecentosanswide-Medium,Novecento sans wide" font-size="84.0" fill="#FEFFFF" transform="matrix(1.00, 0.00, -0.00, -1.00, 501.0, 3.0)">A</text><text xml:space="preserve" font-family="Novecentosanswide-Medium,Novecento sans wide" font-size="84.0" fill="#FEFFFF" transform="matrix(1.00, 0.00, -0.00, -1.00, 560.0, 3.0)">D</text><text xml:space="preserve" font-family="Novecentosanswide-Medium,Novecento sans wide" font-size="84.0" fill="#FEFFFF" transform="matrix(1.00, 0.00, -0.00, -1.00, 618.7, 3.0)">E</text><text xml:space="preserve" font-family="Novecentosanswide-Medium,Novecento sans wide" font-size="84.0" fill="#FEFFFF" transform="matrix(1.00, 0.00, -0.00, -1.00, 666.3, 3.0)"> </text><text xml:space="preserve" font-family="Novecentosanswide-DemiBold,Novecento sans wide" font-weight="bold" font-size="84.0" fill="#009ED8" transform="matrix(1.00, 0.00, -0.00, -1.00, 684.1, 3.0)">I</text><text xml:space="preserve" font-family="Novecentosanswide-DemiBold,Novecento sans wide" font-weight="bold" font-size="84.0" fill="#009ED8" transform="matrix(1.00, 0.00, -0.00, -1.00, 703.2, 3.0)">N</text><text xml:space="preserve" font-family="Novecentosanswide-DemiBold,Novecento sans wide" font-weight="bold" font-size="84.0" fill="#009ED8" transform="matrix(1.00, 0.00, -0.00, -1.00, 762.4, 3.0)">T</text><text xml:space="preserve" font-family="Novecentosanswide-DemiBold,Novecento sans wide" font-weight="bold" font-size="84.0" fill="#009ED8" transform="matrix(1.00, 0.00, -0.00, -1.00, 814.0, 3.0)">E</text><text xml:space="preserve" font-family="Novecentosanswide-DemiBold,Novecento sans wide" font-weight="bold" font-size="84.0" fill="#009ED8" transform="matrix(1.00, 0.00, -0.00, -1.00, 862.0, 3.0)">R</text><text xml:space="preserve" font-family="Novecentosanswide-DemiBold,Novecento sans wide" font-weight="bold" font-size="84.0" fill="#009ED8" transform="matrix(1.00, 0.00, -0.00, -1.00, 911.8, 3.0)">F</text><text xml:space="preserve" font-family="Novecentosanswide-DemiBold,Novecento sans wide" font-weight="bold" font-size="84.0" fill="#009ED8" transform="matrix(1.00, 0.00, -0.00, -1.00, 949.3, 3.0)">A</text><text xml:space="preserve" font-family="Novecentosanswide-DemiBold,Novecento sans wide" font-weight="bold" font-size="84.0" fill="#009ED8" transform="matrix(1.00, 0.00, -0.00, -1.00, 1006.6, 3.0)">C</text><text xml:space="preserve" font-family="Novecentosanswide-DemiBold,Novecento sans wide" font-weight="bold" font-size="84.0" fill="#009ED8" transform="matrix(1.00, 0.00, -0.00, -1.00, 1066.9, 3.0)">E</text></g></g></g></svg>