<?xml version="1.0" encoding="UTF-8" standalone="no"?><svg xmlns="http://www.w3.org/2000/svg" xmlns:xlink="http://www.w3.org/1999/xlink" clip-rule="evenodd" stroke-miterlimit="10" viewBox="0 0 322 49"><desc>SVG generated by Keynote</desc><defs></defs><g transform="matrix(1.00, 0.00, -0.00, -1.00, 0.0, 49.0)"><text xml:space="preserve" font-family="Cantarell-Regular,Cantarell" font-size="36.0" fill="#DFDFDF" transform="matrix(1.00, 0.00, -0.00, -1.00, 0.1, 10.6)">•</text><text xml:space="preserve" font-family="Cantarell-Regular,Cantarell" font-size="36.0" fill="#DFDFDF" transform="matrix(1.00, 0.00, -0.00, -1.00, 18.1, 10.6)">M</text><text xml:space="preserve" font-family="Cantarell-Regular,Cantarell" font-size="36.0" fill="#DFDFDF" transform="matrix(1.00, 0.00, -0.00, -1.00, 51.2, 10.6)">e</text><text xml:space="preserve" font-family="Cantarell-Regular,Cantarell" font-size="36.0" fill="#DFDFDF" transform="matrix(1.00, 0.00, -0.00, -1.00, 70.6, 10.6)">s</text><text xml:space="preserve" font-family="Cantarell-Regular,Cantarell" font-size="36.0" fill="#DFDFDF" transform="matrix(1.00, 0.00, -0.00, -1.00, 88.5, 10.6)">s</text><text xml:space="preserve" font-family="Cantarell-Regular,Cantarell" font-size="36.0" fill="#DFDFDF" transform="matrix(1.00, 0.00, -0.00, -1.00, 106.3, 10.6)">y</text><text xml:space="preserve" font-family="Cantarell-Regular,Cantarell" font-size="36.0" fill="#DFDFDF" transform="matrix(1.00, 0.00, -0.00, -1.00, 124.9, 10.6)"> </text><text xml:space="preserve" font-family="Cantarell-Regular,Cantarell" font-size="36.0" fill="#DFDFDF" transform="matrix(1.00, 0.00, -0.00, -1.00, 134.8, 10.6)">t</text><text xml:space="preserve" font-family="Cantarell-Regular,Cantarell" font-size="36.0" fill="#DFDFDF" transform="matrix(1.00, 0.00, -0.00, -1.00, 148.4, 10.6)">o</text><text xml:space="preserve" font-family="Cantarell-Regular,Cantarell" font-size="36.0" fill="#DFDFDF" transform="matrix(1.00, 0.00, -0.00, -1.00, 169.7, 10.6)"> </text><text xml:space="preserve" font-family="Cantarell-Regular,Cantarell" font-size="36.0" fill="#DFDFDF" transform="matrix(1.00, 0.00, -0.00, -1.00, 179.6, 10.6)">o</text><text xml:space="preserve" font-family="Cantarell-Regular,Cantarell" font-size="36.0" fill="#DFDFDF" transform="matrix(1.00, 0.00, -0.00, -1.00, 200.9, 10.6)">v</text><text xml:space="preserve" font-family="Cantarell-Regular,Cantarell" font-size="36.0" fill="#DFDFDF" transform="matrix(1.00, 0.00, -0.00, -1.00, 218.3, 10.6)">e</text><text xml:space="preserve" font-family="Cantarell-Regular,Cantarell" font-size="36.0" fill="#DFDFDF" transform="matrix(1.00, 0.00, -0.00, -1.00, 237.7, 10.6)">r</text><text xml:space="preserve" font-family="Cantarell-Regular,Cantarell" font-size="36.0" fill="#DFDFDF" transform="matrix(1.00, 0.00, -0.00, -1.00, 251.8, 10.6)">l</text><text xml:space="preserve" font-family="Cantarell-Regular,Cantarell" font-size="36.0" fill="#DFDFDF" transform="matrix(1.00, 0.00, -0.00, -1.00, 261.7, 10.6)">o</text><text xml:space="preserve" font-family="Cantarell-Regular,Cantarell" font-size="36.0" fill="#DFDFDF" transform="matrix(1.00, 0.00, -0.00, -1.00, 283.0, 10.6)">a</text><text xml:space="preserve" font-family="Cantarell-Regular,Cantarell" font-size="36.0" fill="#DFDFDF" transform="matrix(1.00, 0.00, -0.00, -1.00, 301.8, 10.6)">d</text></g></svg>