<?xml version="1.0" encoding="UTF-8" standalone="no"?><svg xmlns="http://www.w3.org/2000/svg" xmlns:xlink="http://www.w3.org/1999/xlink" clip-rule="evenodd" stroke-miterlimit="10" viewBox="0 0 937 266"><desc>SVG generated by Keynote</desc><defs></defs><g transform="matrix(1.00, 0.00, -0.00, -1.00, 0.0, 266.0)"><g><clipPath id="clip0x600000aa0240"><path d="M 0.8 0.1 L 936.6 0.1 L 936.6 197.8 L 0.8 197.8 Z M 0.8 0.1 "></path></clipPath><g clip-path="url(#clip0x600000aa0240)"><image xlink:href="E988CFC8AADD256B0A02048CDF4E5608.png" width="748.00" height="158.00" transform="matrix(1.25, 0.00, -0.00, -1.25, 0.8, 197.8)"></image></g></g><g><clipPath id="clip0x6180008b4580"><path d="M 38.2 200.4 L 899.3 200.4 L 899.3 276.1 L 38.2 276.1 Z M 38.2 200.4 "></path></clipPath><g clip-path="url(#clip0x6180008b4580)"><text xml:space="preserve" font-family="Cantarell-Regular,Cantarell" font-size="36.0" fill="#DFDFDF" transform="matrix(1.00, 0.00, -0.00, -1.00, 104.9, 225.7)">U</text><text xml:space="preserve" font-family="Cantarell-Regular,Cantarell" font-size="36.0" fill="#DFDFDF" transform="matrix(1.00, 0.00, -0.00, -1.00, 132.8, 225.7)">p</text><text xml:space="preserve" font-family="Cantarell-Regular,Cantarell" font-size="36.0" fill="#DFDFDF" transform="matrix(1.00, 0.00, -0.00, -1.00, 153.4, 225.7)">d</text><text xml:space="preserve" font-family="Cantarell-Regular,Cantarell" font-size="36.0" fill="#DFDFDF" transform="matrix(1.00, 0.00, -0.00, -1.00, 174.3, 225.7)">a</text><text xml:space="preserve" font-family="Cantarell-Regular,Cantarell" font-size="36.0" fill="#DFDFDF" transform="matrix(1.00, 0.00, -0.00, -1.00, 193.1, 225.7)">t</text><text xml:space="preserve" font-family="Cantarell-Regular,Cantarell" font-size="36.0" fill="#DFDFDF" transform="matrix(1.00, 0.00, -0.00, -1.00, 206.8, 225.7)">e</text><text xml:space="preserve" font-family="Cantarell-Regular,Cantarell" font-size="36.0" fill="#DFDFDF" transform="matrix(1.00, 0.00, -0.00, -1.00, 226.1, 225.7)"> </text><text xml:space="preserve" font-family="Cantarell-Regular,Cantarell" font-size="36.0" fill="#DFDFDF" transform="matrix(1.00, 0.00, -0.00, -1.00, 236.0, 225.7)">S</text><text xml:space="preserve" font-family="Cantarell-Regular,Cantarell" font-size="36.0" fill="#DFDFDF" transform="matrix(1.00, 0.00, -0.00, -1.00, 259.9, 225.7)">e</text><text xml:space="preserve" font-family="Cantarell-Regular,Cantarell" font-size="36.0" fill="#DFDFDF" transform="matrix(1.00, 0.00, -0.00, -1.00, 279.3, 225.7)">r</text><text xml:space="preserve" font-family="Cantarell-Regular,Cantarell" font-size="36.0" fill="#DFDFDF" transform="matrix(1.00, 0.00, -0.00, -1.00, 293.4, 225.7)">v</text><text xml:space="preserve" font-family="Cantarell-Regular,Cantarell" font-size="36.0" fill="#DFDFDF" transform="matrix(1.00, 0.00, -0.00, -1.00, 310.8, 225.7)">i</text><text xml:space="preserve" font-family="Cantarell-Regular,Cantarell" font-size="36.0" fill="#DFDFDF" transform="matrix(1.00, 0.00, -0.00, -1.00, 320.0, 225.7)">c</text><text xml:space="preserve" font-family="Cantarell-Regular,Cantarell" font-size="36.0" fill="#DFDFDF" transform="matrix(1.00, 0.00, -0.00, -1.00, 337.6, 225.7)">e</text><text xml:space="preserve" font-family="Cantarell-Regular,Cantarell" font-size="36.0" fill="#DFDFDF" transform="matrix(1.00, 0.00, -0.00, -1.00, 357.0, 225.7)">P</text><text xml:space="preserve" font-family="Cantarell-Regular,Cantarell" font-size="36.0" fill="#DFDFDF" transform="matrix(1.00, 0.00, -0.00, -1.00, 380.5, 225.7)">r</text><text xml:space="preserve" font-family="Cantarell-Regular,Cantarell" font-size="36.0" fill="#DFDFDF" transform="matrix(1.00, 0.00, -0.00, -1.00, 394.6, 225.7)">o</text><text xml:space="preserve" font-family="Cantarell-Regular,Cantarell" font-size="36.0" fill="#DFDFDF" transform="matrix(1.00, 0.00, -0.00, -1.00, 415.9, 225.7)">v</text><text xml:space="preserve" font-family="Cantarell-Regular,Cantarell" font-size="36.0" fill="#DFDFDF" transform="matrix(1.00, 0.00, -0.00, -1.00, 433.3, 225.7)">i</text><text xml:space="preserve" font-family="Cantarell-Regular,Cantarell" font-size="36.0" fill="#DFDFDF" transform="matrix(1.00, 0.00, -0.00, -1.00, 442.6, 225.7)">d</text><text xml:space="preserve" font-family="Cantarell-Regular,Cantarell" font-size="36.0" fill="#DFDFDF" transform="matrix(1.00, 0.00, -0.00, -1.00, 463.4, 225.7)">e</text><text xml:space="preserve" font-family="Cantarell-Regular,Cantarell" font-size="36.0" fill="#DFDFDF" transform="matrix(1.00, 0.00, -0.00, -1.00, 482.8, 225.7)">r</text><text xml:space="preserve" font-family="Cantarell-Regular,Cantarell" font-size="36.0" fill="#DFDFDF" transform="matrix(1.00, 0.00, -0.00, -1.00, 496.9, 225.7)"> </text><text xml:space="preserve" font-family="Cantarell-Regular,Cantarell" font-size="36.0" fill="#DFDFDF" transform="matrix(1.00, 0.00, -0.00, -1.00, 506.8, 225.7)">i</text><text xml:space="preserve" font-family="Cantarell-Regular,Cantarell" font-size="36.0" fill="#DFDFDF" transform="matrix(1.00, 0.00, -0.00, -1.00, 516.0, 225.7)">n</text><text xml:space="preserve" font-family="Cantarell-Regular,Cantarell" font-size="36.0" fill="#DFDFDF" transform="matrix(1.00, 0.00, -0.00, -1.00, 536.6, 225.7)"> </text><text xml:space="preserve" font-family="Cantarell-Regular,Cantarell" font-size="36.0" fill="#DFDFDF" transform="matrix(1.00, 0.00, -0.00, -1.00, 546.5, 225.7)">a</text><text xml:space="preserve" font-family="Cantarell-Regular,Cantarell" font-size="36.0" fill="#DFDFDF" transform="matrix(1.00, 0.00, -0.00, -1.00, 565.3, 225.7)">p</text><text xml:space="preserve" font-family="Cantarell-Regular,Cantarell" font-size="36.0" fill="#DFDFDF" transform="matrix(1.00, 0.00, -0.00, -1.00, 586.0, 225.7)">p</text><text xml:space="preserve" font-family="Cantarell-Regular,Cantarell" font-size="36.0" fill="#DFDFDF" transform="matrix(1.00, 0.00, -0.00, -1.00, 606.6, 225.7)">/</text><text xml:space="preserve" font-family="Cantarell-Regular,Cantarell" font-size="36.0" fill="#DFDFDF" transform="matrix(1.00, 0.00, -0.00, -1.00, 619.4, 225.7)">c</text><text xml:space="preserve" font-family="Cantarell-Regular,Cantarell" font-size="36.0" fill="#DFDFDF" transform="matrix(1.00, 0.00, -0.00, -1.00, 637.0, 225.7)">o</text><text xml:space="preserve" font-family="Cantarell-Regular,Cantarell" font-size="36.0" fill="#DFDFDF" transform="matrix(1.00, 0.00, -0.00, -1.00, 658.3, 225.7)">n</text><text xml:space="preserve" font-family="Cantarell-Regular,Cantarell" font-size="36.0" fill="#DFDFDF" transform="matrix(1.00, 0.00, -0.00, -1.00, 679.0, 225.7)">f</text><text xml:space="preserve" font-family="Cantarell-Regular,Cantarell" font-size="36.0" fill="#DFDFDF" transform="matrix(1.00, 0.00, -0.00, -1.00, 693.4, 225.7)">i</text><text xml:space="preserve" font-family="Cantarell-Regular,Cantarell" font-size="36.0" fill="#DFDFDF" transform="matrix(1.00, 0.00, -0.00, -1.00, 702.6, 225.7)">g</text><text xml:space="preserve" font-family="Cantarell-Regular,Cantarell" font-size="36.0" fill="#DFDFDF" transform="matrix(1.00, 0.00, -0.00, -1.00, 723.3, 225.7)">/</text><text xml:space="preserve" font-family="Cantarell-Regular,Cantarell" font-size="36.0" fill="#DFDFDF" transform="matrix(1.00, 0.00, -0.00, -1.00, 736.1, 225.7)">a</text><text xml:space="preserve" font-family="Cantarell-Regular,Cantarell" font-size="36.0" fill="#DFDFDF" transform="matrix(1.00, 0.00, -0.00, -1.00, 754.9, 225.7)">p</text><text xml:space="preserve" font-family="Cantarell-Regular,Cantarell" font-size="36.0" fill="#DFDFDF" transform="matrix(1.00, 0.00, -0.00, -1.00, 775.6, 225.7)">p</text><text xml:space="preserve" font-family="Cantarell-Regular,Cantarell" font-size="36.0" fill="#DFDFDF" transform="matrix(1.00, 0.00, -0.00, -1.00, 796.2, 225.7)">.</text><text xml:space="preserve" font-family="Cantarell-Regular,Cantarell" font-size="36.0" fill="#DFDFDF" transform="matrix(1.00, 0.00, -0.00, -1.00, 806.3, 225.7)">p</text><text xml:space="preserve" font-family="Cantarell-Regular,Cantarell" font-size="36.0" fill="#DFDFDF" transform="matrix(1.00, 0.00, -0.00, -1.00, 826.9, 225.7)">h</text><text xml:space="preserve" font-family="Cantarell-Regular,Cantarell" font-size="36.0" fill="#DFDFDF" transform="matrix(1.00, 0.00, -0.00, -1.00, 847.9, 225.7)">p</text></g></g></g></svg>