<?xml version="1.0" encoding="UTF-8" standalone="no"?><svg xmlns="http://www.w3.org/2000/svg" xmlns:xlink="http://www.w3.org/1999/xlink" clip-rule="evenodd" stroke-miterlimit="10" viewBox="0 0 1920 1080"><desc>SVG generated by Keynote</desc><defs></defs><g transform="matrix(1.00, 0.00, -0.00, -1.00, 0.0, 1080.0)"><g><clipPath id="clip0x6100008ac480"><path d="M 0.0 1080.0 L 1920.0 1080.0 L 1920.0 0.0 L 0.0 0.0 Z M 0.0 1080.0 "></path></clipPath><g clip-path="url(#clip0x6100008ac480)"><image xlink:href="../../C97FF4F8-EF6C-44ED-93A5-51D1763A8AD8/assets/A21350F466CC745F583C6B428407BD01.jpeg" width="1920.00" height="1080.00" transform="matrix(1.00, 0.00, -0.00, -1.00, 0.0, 1080.0)"></image></g></g><g><clipPath id="clip0x6100008acae0"><path d="M 73.8 935.0 L 1846.2 935.0 L 1846.2 1031.0 L 73.8 1031.0 Z M 73.8 935.0 "></path></clipPath><g clip-path="url(#clip0x6100008acae0)"><text xml:space="preserve" font-family="Novecentosanswide-Medium,Novecento sans wide" font-size="84.0" fill="#FEFFFF" transform="matrix(1.00, 0.00, -0.00, -1.00, 308.0, 945.0)">S</text><text xml:space="preserve" font-family="Novecentosanswide-Medium,Novecento sans wide" font-size="84.0" fill="#FEFFFF" transform="matrix(1.00, 0.00, -0.00, -1.00, 355.6, 945.0)">E</text><text xml:space="preserve" font-family="Novecentosanswide-Medium,Novecento sans wide" font-size="84.0" fill="#FEFFFF" transform="matrix(1.00, 0.00, -0.00, -1.00, 403.2, 945.0)">S</text><text xml:space="preserve" font-family="Novecentosanswide-Medium,Novecento sans wide" font-size="84.0" fill="#FEFFFF" transform="matrix(1.00, 0.00, -0.00, -1.00, 450.8, 945.0)">S</text><text xml:space="preserve" font-family="Novecentosanswide-Medium,Novecento sans wide" font-size="84.0" fill="#FEFFFF" transform="matrix(1.00, 0.00, -0.00, -1.00, 498.4, 945.0)">I</text><text xml:space="preserve" font-family="Novecentosanswide-Medium,Novecento sans wide" font-size="84.0" fill="#FEFFFF" transform="matrix(1.00, 0.00, -0.00, -1.00, 516.2, 945.0)">O</text><text xml:space="preserve" font-family="Novecentosanswide-Medium,Novecento sans wide" font-size="84.0" fill="#FEFFFF" transform="matrix(1.00, 0.00, -0.00, -1.00, 580.2, 945.0)">N</text><text xml:space="preserve" font-family="Novecentosanswide-Medium,Novecento sans wide" font-size="84.0" fill="#FEFFFF" transform="matrix(1.00, 0.00, -0.00, -1.00, 638.8, 945.0)"> </text><text xml:space="preserve" font-family="Novecentosanswide-Medium,Novecento sans wide" font-size="84.0" fill="#FEFFFF" transform="matrix(1.00, 0.00, -0.00, -1.00, 656.6, 945.0)">F</text><text xml:space="preserve" font-family="Novecentosanswide-Medium,Novecento sans wide" font-size="84.0" fill="#FEFFFF" transform="matrix(1.00, 0.00, -0.00, -1.00, 693.4, 945.0)">A</text><text xml:space="preserve" font-family="Novecentosanswide-Medium,Novecento sans wide" font-size="84.0" fill="#FEFFFF" transform="matrix(1.00, 0.00, -0.00, -1.00, 749.9, 945.0)">C</text><text xml:space="preserve" font-family="Novecentosanswide-Medium,Novecento sans wide" font-size="84.0" fill="#FEFFFF" transform="matrix(1.00, 0.00, -0.00, -1.00, 810.0, 945.0)">A</text><text xml:space="preserve" font-family="Novecentosanswide-Medium,Novecento sans wide" font-size="84.0" fill="#FEFFFF" transform="matrix(1.00, 0.00, -0.00, -1.00, 869.0, 945.0)">D</text><text xml:space="preserve" font-family="Novecentosanswide-Medium,Novecento sans wide" font-size="84.0" fill="#FEFFFF" transform="matrix(1.00, 0.00, -0.00, -1.00, 927.6, 945.0)">E</text><text xml:space="preserve" font-family="Novecentosanswide-Medium,Novecento sans wide" font-size="84.0" fill="#FEFFFF" transform="matrix(1.00, 0.00, -0.00, -1.00, 975.2, 945.0)"> </text><text xml:space="preserve" font-family="Novecentosanswide-DemiBold,Novecento sans wide" font-weight="bold" font-size="84.0" fill="#009ED8" transform="matrix(1.00, 0.00, -0.00, -1.00, 993.1, 945.0)">I</text><text xml:space="preserve" font-family="Novecentosanswide-DemiBold,Novecento sans wide" font-weight="bold" font-size="84.0" fill="#009ED8" transform="matrix(1.00, 0.00, -0.00, -1.00, 1012.2, 945.0)">M</text><text xml:space="preserve" font-family="Novecentosanswide-DemiBold,Novecento sans wide" font-weight="bold" font-size="84.0" fill="#009ED8" transform="matrix(1.00, 0.00, -0.00, -1.00, 1077.2, 945.0)">P</text><text xml:space="preserve" font-family="Novecentosanswide-DemiBold,Novecento sans wide" font-weight="bold" font-size="84.0" fill="#009ED8" transform="matrix(1.00, 0.00, -0.00, -1.00, 1124.7, 945.0)">R</text><text xml:space="preserve" font-family="Novecentosanswide-DemiBold,Novecento sans wide" font-weight="bold" font-size="84.0" fill="#009ED8" transform="matrix(1.00, 0.00, -0.00, -1.00, 1173.9, 945.0)">O</text><text xml:space="preserve" font-family="Novecentosanswide-DemiBold,Novecento sans wide" font-weight="bold" font-size="84.0" fill="#009ED8" transform="matrix(1.00, 0.00, -0.00, -1.00, 1235.2, 945.0)">V</text><text xml:space="preserve" font-family="Novecentosanswide-DemiBold,Novecento sans wide" font-weight="bold" font-size="84.0" fill="#009ED8" transform="matrix(1.00, 0.00, -0.00, -1.00, 1292.5, 945.0)">E</text><text xml:space="preserve" font-family="Novecentosanswide-DemiBold,Novecento sans wide" font-weight="bold" font-size="84.0" fill="#009ED8" transform="matrix(1.00, 0.00, -0.00, -1.00, 1340.5, 945.0)">M</text><text xml:space="preserve" font-family="Novecentosanswide-DemiBold,Novecento sans wide" font-weight="bold" font-size="84.0" fill="#009ED8" transform="matrix(1.00, 0.00, -0.00, -1.00, 1405.6, 945.0)">E</text><text xml:space="preserve" font-family="Novecentosanswide-DemiBold,Novecento sans wide" font-weight="bold" font-size="84.0" fill="#009ED8" transform="matrix(1.00, 0.00, -0.00, -1.00, 1453.6, 945.0)">N</text><text xml:space="preserve" font-family="Novecentosanswide-DemiBold,Novecento sans wide" font-weight="bold" font-size="84.0" fill="#009ED8" transform="matrix(1.00, 0.00, -0.00, -1.00, 1512.8, 945.0)">T</text><text xml:space="preserve" font-family="Novecentosanswide-DemiBold,Novecento sans wide" font-weight="bold" font-size="84.0" fill="#009ED8" transform="matrix(1.00, 0.00, -0.00, -1.00, 1563.5, 945.0)">S</text></g></g><text xml:space="preserve" font-family="Novecentosanswide-Medium,Novecento sans wide" font-size="42.0" fill="#FFFFFF" transform="matrix(1.00, 0.00, -0.00, -1.00, 28.9, 790.9)">2</text><text xml:space="preserve" font-family="Novecentosanswide-Medium,Novecento sans wide" font-size="42.0" fill="#FFFFFF" transform="matrix(1.00, 0.00, -0.00, -1.00, 49.7, 790.9)">)</text><text xml:space="preserve" font-family="Novecentosanswide-Medium,Novecento sans wide" font-size="42.0" fill="#FFFFFF" transform="matrix(1.00, 0.00, -0.00, -1.00, 65.5, 790.9)"> </text><text xml:space="preserve" font-family="Novecentosanswide-Medium,Novecento sans wide" font-size="42.0" fill="#FFFFFF" transform="matrix(1.00, 0.00, -0.00, -1.00, 76.0, 790.9)">R</text><text xml:space="preserve" font-family="Novecentosanswide-Medium,Novecento sans wide" font-size="42.0" fill="#FFFFFF" transform="matrix(1.00, 0.00, -0.00, -1.00, 101.9, 790.9)">e</text><text xml:space="preserve" font-family="Novecentosanswide-Medium,Novecento sans wide" font-size="42.0" fill="#FFFFFF" transform="matrix(1.00, 0.00, -0.00, -1.00, 123.3, 790.9)">g</text><text xml:space="preserve" font-family="Novecentosanswide-Medium,Novecento sans wide" font-size="42.0" fill="#FFFFFF" transform="matrix(1.00, 0.00, -0.00, -1.00, 151.5, 790.9)">i</text><text xml:space="preserve" font-family="Novecentosanswide-Medium,Novecento sans wide" font-size="42.0" fill="#FFFFFF" transform="matrix(1.00, 0.00, -0.00, -1.00, 161.7, 790.9)">s</text><text xml:space="preserve" font-family="Novecentosanswide-Medium,Novecento sans wide" font-size="42.0" fill="#FFFFFF" transform="matrix(1.00, 0.00, -0.00, -1.00, 182.7, 790.9)">t</text><text xml:space="preserve" font-family="Novecentosanswide-Medium,Novecento sans wide" font-size="42.0" fill="#FFFFFF" transform="matrix(1.00, 0.00, -0.00, -1.00, 205.9, 790.9)">e</text><text xml:space="preserve" font-family="Novecentosanswide-Medium,Novecento sans wide" font-size="42.0" fill="#FFFFFF" transform="matrix(1.00, 0.00, -0.00, -1.00, 228.2, 790.9)">r</text><text xml:space="preserve" font-family="Novecentosanswide-Medium,Novecento sans wide" font-size="42.0" fill="#FFFFFF" transform="matrix(1.00, 0.00, -0.00, -1.00, 251.3, 790.9)"> </text><text xml:space="preserve" font-family="Novecentosanswide-Medium,Novecento sans wide" font-size="42.0" fill="#FFFFFF" transform="matrix(1.00, 0.00, -0.00, -1.00, 261.8, 790.9)">I</text><text xml:space="preserve" font-family="Novecentosanswide-Medium,Novecento sans wide" font-size="42.0" fill="#FFFFFF" transform="matrix(1.00, 0.00, -0.00, -1.00, 272.3, 790.9)">o</text><text xml:space="preserve" font-family="Novecentosanswide-Medium,Novecento sans wide" font-size="42.0" fill="#FFFFFF" transform="matrix(1.00, 0.00, -0.00, -1.00, 300.3, 790.9)">C</text><text xml:space="preserve" font-family="Novecentosanswide-Medium,Novecento sans wide" font-size="42.0" fill="#FFFFFF" transform="matrix(1.00, 0.00, -0.00, -1.00, 332.3, 790.9)"> </text><text xml:space="preserve" font-family="Novecentosanswide-Medium,Novecento sans wide" font-size="42.0" fill="#FFFFFF" transform="matrix(1.00, 0.00, -0.00, -1.00, 342.8, 790.9)">B</text><text xml:space="preserve" font-family="Novecentosanswide-Medium,Novecento sans wide" font-size="42.0" fill="#FFFFFF" transform="matrix(1.00, 0.00, -0.00, -1.00, 369.1, 790.9)">i</text><text xml:space="preserve" font-family="Novecentosanswide-Medium,Novecento sans wide" font-size="42.0" fill="#FFFFFF" transform="matrix(1.00, 0.00, -0.00, -1.00, 379.4, 790.9)">n</text><text xml:space="preserve" font-family="Novecentosanswide-Medium,Novecento sans wide" font-size="42.0" fill="#FFFFFF" transform="matrix(1.00, 0.00, -0.00, -1.00, 406.2, 790.9)">d</text><text xml:space="preserve" font-family="Novecentosanswide-Medium,Novecento sans wide" font-size="42.0" fill="#FFFFFF" transform="matrix(1.00, 0.00, -0.00, -1.00, 432.3, 790.9)">i</text><text xml:space="preserve" font-family="Novecentosanswide-Medium,Novecento sans wide" font-size="42.0" fill="#FFFFFF" transform="matrix(1.00, 0.00, -0.00, -1.00, 442.5, 790.9)">n</text><text xml:space="preserve" font-family="Novecentosanswide-Medium,Novecento sans wide" font-size="42.0" fill="#FFFFFF" transform="matrix(1.00, 0.00, -0.00, -1.00, 469.4, 790.9)">g</text><image xlink:href="../../E7BDC1F3-81B6-4047-90E4-3FB89DC795E6/assets/BAD817CB64CD5077D73879F6E6C96F4A.png" width="1134.00" height="462.00" transform="matrix(1.19, 0.00, -0.00, -1.19, 551.2, 885.9)"></image><g><clipPath id="clip0x6180008b6440"><path d="M 20.8 24.1 L 956.6 24.1 L 956.6 221.8 L 20.8 221.8 Z M 20.8 24.1 "></path></clipPath><g clip-path="url(#clip0x6180008b6440)"><image xlink:href="../../E7BDC1F3-81B6-4047-90E4-3FB89DC795E6/assets/E988CFC8AADD256B0A02048CDF4E5608.png" width="748.00" height="158.00" transform="matrix(1.25, 0.00, -0.00, -1.25, 20.8, 221.8)"></image></g></g><g><clipPath id="clip0x6100008ae220"><path d="M 58.2 224.4 L 919.3 224.4 L 919.3 300.1 L 58.2 300.1 Z M 58.2 224.4 "></path></clipPath><g clip-path="url(#clip0x6100008ae220)"><text xml:space="preserve" font-family="Cantarell-Regular,Cantarell" font-size="36.0" fill="#DFDFDF" transform="matrix(1.00, 0.00, -0.00, -1.00, 124.9, 249.7)">U</text><text xml:space="preserve" font-family="Cantarell-Regular,Cantarell" font-size="36.0" fill="#DFDFDF" transform="matrix(1.00, 0.00, -0.00, -1.00, 152.8, 249.7)">p</text><text xml:space="preserve" font-family="Cantarell-Regular,Cantarell" font-size="36.0" fill="#DFDFDF" transform="matrix(1.00, 0.00, -0.00, -1.00, 173.4, 249.7)">d</text><text xml:space="preserve" font-family="Cantarell-Regular,Cantarell" font-size="36.0" fill="#DFDFDF" transform="matrix(1.00, 0.00, -0.00, -1.00, 194.3, 249.7)">a</text><text xml:space="preserve" font-family="Cantarell-Regular,Cantarell" font-size="36.0" fill="#DFDFDF" transform="matrix(1.00, 0.00, -0.00, -1.00, 213.1, 249.7)">t</text><text xml:space="preserve" font-family="Cantarell-Regular,Cantarell" font-size="36.0" fill="#DFDFDF" transform="matrix(1.00, 0.00, -0.00, -1.00, 226.8, 249.7)">e</text><text xml:space="preserve" font-family="Cantarell-Regular,Cantarell" font-size="36.0" fill="#DFDFDF" transform="matrix(1.00, 0.00, -0.00, -1.00, 246.1, 249.7)"> </text><text xml:space="preserve" font-family="Cantarell-Regular,Cantarell" font-size="36.0" fill="#DFDFDF" transform="matrix(1.00, 0.00, -0.00, -1.00, 256.0, 249.7)">S</text><text xml:space="preserve" font-family="Cantarell-Regular,Cantarell" font-size="36.0" fill="#DFDFDF" transform="matrix(1.00, 0.00, -0.00, -1.00, 279.9, 249.7)">e</text><text xml:space="preserve" font-family="Cantarell-Regular,Cantarell" font-size="36.0" fill="#DFDFDF" transform="matrix(1.00, 0.00, -0.00, -1.00, 299.3, 249.7)">r</text><text xml:space="preserve" font-family="Cantarell-Regular,Cantarell" font-size="36.0" fill="#DFDFDF" transform="matrix(1.00, 0.00, -0.00, -1.00, 313.4, 249.7)">v</text><text xml:space="preserve" font-family="Cantarell-Regular,Cantarell" font-size="36.0" fill="#DFDFDF" transform="matrix(1.00, 0.00, -0.00, -1.00, 330.8, 249.7)">i</text><text xml:space="preserve" font-family="Cantarell-Regular,Cantarell" font-size="36.0" fill="#DFDFDF" transform="matrix(1.00, 0.00, -0.00, -1.00, 340.0, 249.7)">c</text><text xml:space="preserve" font-family="Cantarell-Regular,Cantarell" font-size="36.0" fill="#DFDFDF" transform="matrix(1.00, 0.00, -0.00, -1.00, 357.6, 249.7)">e</text><text xml:space="preserve" font-family="Cantarell-Regular,Cantarell" font-size="36.0" fill="#DFDFDF" transform="matrix(1.00, 0.00, -0.00, -1.00, 377.0, 249.7)">P</text><text xml:space="preserve" font-family="Cantarell-Regular,Cantarell" font-size="36.0" fill="#DFDFDF" transform="matrix(1.00, 0.00, -0.00, -1.00, 400.5, 249.7)">r</text><text xml:space="preserve" font-family="Cantarell-Regular,Cantarell" font-size="36.0" fill="#DFDFDF" transform="matrix(1.00, 0.00, -0.00, -1.00, 414.6, 249.7)">o</text><text xml:space="preserve" font-family="Cantarell-Regular,Cantarell" font-size="36.0" fill="#DFDFDF" transform="matrix(1.00, 0.00, -0.00, -1.00, 435.9, 249.7)">v</text><text xml:space="preserve" font-family="Cantarell-Regular,Cantarell" font-size="36.0" fill="#DFDFDF" transform="matrix(1.00, 0.00, -0.00, -1.00, 453.3, 249.7)">i</text><text xml:space="preserve" font-family="Cantarell-Regular,Cantarell" font-size="36.0" fill="#DFDFDF" transform="matrix(1.00, 0.00, -0.00, -1.00, 462.6, 249.7)">d</text><text xml:space="preserve" font-family="Cantarell-Regular,Cantarell" font-size="36.0" fill="#DFDFDF" transform="matrix(1.00, 0.00, -0.00, -1.00, 483.4, 249.7)">e</text><text xml:space="preserve" font-family="Cantarell-Regular,Cantarell" font-size="36.0" fill="#DFDFDF" transform="matrix(1.00, 0.00, -0.00, -1.00, 502.8, 249.7)">r</text><text xml:space="preserve" font-family="Cantarell-Regular,Cantarell" font-size="36.0" fill="#DFDFDF" transform="matrix(1.00, 0.00, -0.00, -1.00, 516.9, 249.7)"> </text><text xml:space="preserve" font-family="Cantarell-Regular,Cantarell" font-size="36.0" fill="#DFDFDF" transform="matrix(1.00, 0.00, -0.00, -1.00, 526.8, 249.7)">i</text><text xml:space="preserve" font-family="Cantarell-Regular,Cantarell" font-size="36.0" fill="#DFDFDF" transform="matrix(1.00, 0.00, -0.00, -1.00, 536.0, 249.7)">n</text><text xml:space="preserve" font-family="Cantarell-Regular,Cantarell" font-size="36.0" fill="#DFDFDF" transform="matrix(1.00, 0.00, -0.00, -1.00, 556.6, 249.7)"> </text><text xml:space="preserve" font-family="Cantarell-Regular,Cantarell" font-size="36.0" fill="#DFDFDF" transform="matrix(1.00, 0.00, -0.00, -1.00, 566.5, 249.7)">a</text><text xml:space="preserve" font-family="Cantarell-Regular,Cantarell" font-size="36.0" fill="#DFDFDF" transform="matrix(1.00, 0.00, -0.00, -1.00, 585.3, 249.7)">p</text><text xml:space="preserve" font-family="Cantarell-Regular,Cantarell" font-size="36.0" fill="#DFDFDF" transform="matrix(1.00, 0.00, -0.00, -1.00, 606.0, 249.7)">p</text><text xml:space="preserve" font-family="Cantarell-Regular,Cantarell" font-size="36.0" fill="#DFDFDF" transform="matrix(1.00, 0.00, -0.00, -1.00, 626.6, 249.7)">/</text><text xml:space="preserve" font-family="Cantarell-Regular,Cantarell" font-size="36.0" fill="#DFDFDF" transform="matrix(1.00, 0.00, -0.00, -1.00, 639.4, 249.7)">c</text><text xml:space="preserve" font-family="Cantarell-Regular,Cantarell" font-size="36.0" fill="#DFDFDF" transform="matrix(1.00, 0.00, -0.00, -1.00, 657.0, 249.7)">o</text><text xml:space="preserve" font-family="Cantarell-Regular,Cantarell" font-size="36.0" fill="#DFDFDF" transform="matrix(1.00, 0.00, -0.00, -1.00, 678.3, 249.7)">n</text><text xml:space="preserve" font-family="Cantarell-Regular,Cantarell" font-size="36.0" fill="#DFDFDF" transform="matrix(1.00, 0.00, -0.00, -1.00, 699.0, 249.7)">f</text><text xml:space="preserve" font-family="Cantarell-Regular,Cantarell" font-size="36.0" fill="#DFDFDF" transform="matrix(1.00, 0.00, -0.00, -1.00, 713.4, 249.7)">i</text><text xml:space="preserve" font-family="Cantarell-Regular,Cantarell" font-size="36.0" fill="#DFDFDF" transform="matrix(1.00, 0.00, -0.00, -1.00, 722.6, 249.7)">g</text><text xml:space="preserve" font-family="Cantarell-Regular,Cantarell" font-size="36.0" fill="#DFDFDF" transform="matrix(1.00, 0.00, -0.00, -1.00, 743.3, 249.7)">/</text><text xml:space="preserve" font-family="Cantarell-Regular,Cantarell" font-size="36.0" fill="#DFDFDF" transform="matrix(1.00, 0.00, -0.00, -1.00, 756.1, 249.7)">a</text><text xml:space="preserve" font-family="Cantarell-Regular,Cantarell" font-size="36.0" fill="#DFDFDF" transform="matrix(1.00, 0.00, -0.00, -1.00, 774.9, 249.7)">p</text><text xml:space="preserve" font-family="Cantarell-Regular,Cantarell" font-size="36.0" fill="#DFDFDF" transform="matrix(1.00, 0.00, -0.00, -1.00, 795.6, 249.7)">p</text><text xml:space="preserve" font-family="Cantarell-Regular,Cantarell" font-size="36.0" fill="#DFDFDF" transform="matrix(1.00, 0.00, -0.00, -1.00, 816.2, 249.7)">.</text><text xml:space="preserve" font-family="Cantarell-Regular,Cantarell" font-size="36.0" fill="#DFDFDF" transform="matrix(1.00, 0.00, -0.00, -1.00, 826.3, 249.7)">p</text><text xml:space="preserve" font-family="Cantarell-Regular,Cantarell" font-size="36.0" fill="#DFDFDF" transform="matrix(1.00, 0.00, -0.00, -1.00, 846.9, 249.7)">h</text><text xml:space="preserve" font-family="Cantarell-Regular,Cantarell" font-size="36.0" fill="#DFDFDF" transform="matrix(1.00, 0.00, -0.00, -1.00, 867.9, 249.7)">p</text></g></g></g></svg>