<?xml version="1.0" encoding="UTF-8" standalone="no"?><svg xmlns="http://www.w3.org/2000/svg" xmlns:xlink="http://www.w3.org/1999/xlink" clip-rule="evenodd" stroke-miterlimit="10" viewBox="0 0 934 49"><desc>SVG generated by Keynote</desc><defs></defs><g transform="matrix(1.00, 0.00, -0.00, -1.00, 0.0, 49.0)"><text xml:space="preserve" font-family="Cantarell-Bold,Cantarell" font-weight="bold" font-size="36.0" fill="#DFDFDF" transform="matrix(1.00, 0.00, -0.00, -1.00, 0.3, 11.3)">•</text><text xml:space="preserve" font-family="Cantarell-Bold,Cantarell" font-weight="bold" font-size="36.0" fill="#DFDFDF" transform="matrix(1.00, 0.00, -0.00, -1.00, 18.3, 11.1)">S</text><text xml:space="preserve" font-family="Cantarell-Bold,Cantarell" font-weight="bold" font-size="36.0" fill="#DFDFDF" transform="matrix(1.00, 0.00, -0.00, -1.00, 45.1, 11.1)">e</text><text xml:space="preserve" font-family="Cantarell-Bold,Cantarell" font-weight="bold" font-size="36.0" fill="#DFDFDF" transform="matrix(1.00, 0.00, -0.00, -1.00, 67.3, 11.1)">s</text><text xml:space="preserve" font-family="Cantarell-Bold,Cantarell" font-weight="bold" font-size="36.0" fill="#DFDFDF" transform="matrix(1.00, 0.00, -0.00, -1.00, 88.1, 11.1)">s</text><text xml:space="preserve" font-family="Cantarell-Bold,Cantarell" font-weight="bold" font-size="36.0" fill="#DFDFDF" transform="matrix(1.00, 0.00, -0.00, -1.00, 108.8, 11.1)">i</text><text xml:space="preserve" font-family="Cantarell-Bold,Cantarell" font-weight="bold" font-size="36.0" fill="#DFDFDF" transform="matrix(1.00, 0.00, -0.00, -1.00, 119.5, 11.1)">o</text><text xml:space="preserve" font-family="Cantarell-Bold,Cantarell" font-weight="bold" font-size="36.0" fill="#DFDFDF" transform="matrix(1.00, 0.00, -0.00, -1.00, 143.7, 11.1)">n</text><text xml:space="preserve" font-family="Cantarell-Bold,Cantarell" font-weight="bold" font-size="36.0" fill="#DFDFDF" transform="matrix(1.00, 0.00, -0.00, -1.00, 167.0, 11.1)">:</text><text xml:space="preserve" font-family="Cantarell-Bold,Cantarell" font-weight="bold" font-size="36.0" fill="#DFDFDF" transform="matrix(1.00, 0.00, -0.00, -1.00, 177.0, 11.1)">:</text><text xml:space="preserve" font-family="Cantarell-Bold,Cantarell" font-weight="bold" font-size="36.0" fill="#DFDFDF" transform="matrix(1.00, 0.00, -0.00, -1.00, 187.1, 11.1)">k</text><text xml:space="preserve" font-family="Cantarell-Bold,Cantarell" font-weight="bold" font-size="36.0" fill="#DFDFDF" transform="matrix(1.00, 0.00, -0.00, -1.00, 208.8, 11.1)">e</text><text xml:space="preserve" font-family="Cantarell-Bold,Cantarell" font-weight="bold" font-size="36.0" fill="#DFDFDF" transform="matrix(1.00, 0.00, -0.00, -1.00, 231.1, 11.1)">e</text><text xml:space="preserve" font-family="Cantarell-Bold,Cantarell" font-weight="bold" font-size="36.0" fill="#DFDFDF" transform="matrix(1.00, 0.00, -0.00, -1.00, 253.3, 11.1)">p</text><text xml:space="preserve" font-family="Cantarell-Regular,Cantarell" font-size="36.0" fill="#DFDFDF" transform="matrix(1.00, 0.00, -0.00, -1.00, 276.8, 11.1)">(</text><text xml:space="preserve" font-family="Cantarell-Oblique,Cantarell" font-style="italic" font-size="36.0" fill="#DFDFDF" transform="matrix(1.00, 0.00, -0.00, -1.00, 289.9, 11.1)">a</text><text xml:space="preserve" font-family="Cantarell-Oblique,Cantarell" font-style="italic" font-size="36.0" fill="#DFDFDF" transform="matrix(1.00, 0.00, -0.00, -1.00, 308.5, 11.1)">r</text><text xml:space="preserve" font-family="Cantarell-Oblique,Cantarell" font-style="italic" font-size="36.0" fill="#DFDFDF" transform="matrix(1.00, 0.00, -0.00, -1.00, 322.3, 11.1)">r</text><text xml:space="preserve" font-family="Cantarell-Oblique,Cantarell" font-style="italic" font-size="36.0" fill="#DFDFDF" transform="matrix(1.00, 0.00, -0.00, -1.00, 336.2, 11.1)">a</text><text xml:space="preserve" font-family="Cantarell-Oblique,Cantarell" font-style="italic" font-size="36.0" fill="#DFDFDF" transform="matrix(1.00, 0.00, -0.00, -1.00, 354.8, 11.1)">y</text><text xml:space="preserve" font-family="Cantarell-Regular,Cantarell" font-size="36.0" fill="#DFDFDF" transform="matrix(1.00, 0.00, -0.00, -1.00, 373.2, 11.1)"> </text><text xml:space="preserve" font-family="Cantarell-Regular,Cantarell" font-size="36.0" fill="#DFDFDF" transform="matrix(1.00, 0.00, -0.00, -1.00, 383.1, 11.1)">k</text><text xml:space="preserve" font-family="Cantarell-Regular,Cantarell" font-size="36.0" fill="#DFDFDF" transform="matrix(1.00, 0.00, -0.00, -1.00, 401.9, 11.1)">e</text><text xml:space="preserve" font-family="Cantarell-Regular,Cantarell" font-size="36.0" fill="#DFDFDF" transform="matrix(1.00, 0.00, -0.00, -1.00, 421.3, 11.1)">y</text><text xml:space="preserve" font-family="Cantarell-Regular,Cantarell" font-size="36.0" fill="#DFDFDF" transform="matrix(1.00, 0.00, -0.00, -1.00, 439.9, 11.1)">)</text><text xml:space="preserve" font-family="Cantarell-Regular,Cantarell" font-size="36.0" fill="#DFDFDF" transform="matrix(1.00, 0.00, -0.00, -1.00, 453.0, 11.1)"> </text><text xml:space="preserve" font-family="Cantarell-Regular,Cantarell" font-size="36.0" fill="#A6AAA8" transform="matrix(1.00, 0.00, -0.00, -1.00, 462.8, 11.1)">-</text><text xml:space="preserve" font-family="Cantarell-Regular,Cantarell" font-size="36.0" fill="#A6AAA8" transform="matrix(1.00, 0.00, -0.00, -1.00, 484.1, 11.1)"> </text><text xml:space="preserve" font-family="Cantarell-Regular,Cantarell" font-size="36.0" fill="#A6AAA8" transform="matrix(1.00, 0.00, -0.00, -1.00, 494.0, 11.1)">R</text><text xml:space="preserve" font-family="Cantarell-Regular,Cantarell" font-size="36.0" fill="#A6AAA8" transform="matrix(1.00, 0.00, -0.00, -1.00, 519.2, 11.1)">e</text><text xml:space="preserve" font-family="Cantarell-Regular,Cantarell" font-size="36.0" fill="#A6AAA8" transform="matrix(1.00, 0.00, -0.00, -1.00, 538.6, 11.1)">f</text><text xml:space="preserve" font-family="Cantarell-Regular,Cantarell" font-size="36.0" fill="#A6AAA8" transform="matrix(1.00, 0.00, -0.00, -1.00, 553.0, 11.1)">l</text><text xml:space="preserve" font-family="Cantarell-Regular,Cantarell" font-size="36.0" fill="#A6AAA8" transform="matrix(1.00, 0.00, -0.00, -1.00, 563.0, 11.1)">a</text><text xml:space="preserve" font-family="Cantarell-Regular,Cantarell" font-size="36.0" fill="#A6AAA8" transform="matrix(1.00, 0.00, -0.00, -1.00, 581.8, 11.1)">s</text><text xml:space="preserve" font-family="Cantarell-Regular,Cantarell" font-size="36.0" fill="#A6AAA8" transform="matrix(1.00, 0.00, -0.00, -1.00, 599.6, 11.1)">h</text><text xml:space="preserve" font-family="Cantarell-Regular,Cantarell" font-size="36.0" fill="#A6AAA8" transform="matrix(1.00, 0.00, -0.00, -1.00, 620.5, 11.1)"> </text><text xml:space="preserve" font-family="Cantarell-Regular,Cantarell" font-size="36.0" fill="#A6AAA8" transform="matrix(1.00, 0.00, -0.00, -1.00, 630.4, 11.1)">a</text><text xml:space="preserve" font-family="Cantarell-Regular,Cantarell" font-size="36.0" fill="#A6AAA8" transform="matrix(1.00, 0.00, -0.00, -1.00, 649.2, 11.1)"> </text><text xml:space="preserve" font-family="Cantarell-Regular,Cantarell" font-size="36.0" fill="#A6AAA8" transform="matrix(1.00, 0.00, -0.00, -1.00, 659.1, 11.1)">s</text><text xml:space="preserve" font-family="Cantarell-Regular,Cantarell" font-size="36.0" fill="#A6AAA8" transform="matrix(1.00, 0.00, -0.00, -1.00, 676.9, 11.1)">e</text><text xml:space="preserve" font-family="Cantarell-Regular,Cantarell" font-size="36.0" fill="#A6AAA8" transform="matrix(1.00, 0.00, -0.00, -1.00, 696.3, 11.1)">t</text><text xml:space="preserve" font-family="Cantarell-Regular,Cantarell" font-size="36.0" fill="#A6AAA8" transform="matrix(1.00, 0.00, -0.00, -1.00, 709.9, 11.1)"> </text><text xml:space="preserve" font-family="Cantarell-Regular,Cantarell" font-size="36.0" fill="#A6AAA8" transform="matrix(1.00, 0.00, -0.00, -1.00, 719.8, 11.1)">o</text><text xml:space="preserve" font-family="Cantarell-Regular,Cantarell" font-size="36.0" fill="#A6AAA8" transform="matrix(1.00, 0.00, -0.00, -1.00, 741.1, 11.1)">f</text><text xml:space="preserve" font-family="Cantarell-Regular,Cantarell" font-size="36.0" fill="#A6AAA8" transform="matrix(1.00, 0.00, -0.00, -1.00, 755.5, 11.1)"> </text><text xml:space="preserve" font-family="Cantarell-Regular,Cantarell" font-size="36.0" fill="#A6AAA8" transform="matrix(1.00, 0.00, -0.00, -1.00, 765.4, 11.1)">a</text><text xml:space="preserve" font-family="Cantarell-Regular,Cantarell" font-size="36.0" fill="#A6AAA8" transform="matrix(1.00, 0.00, -0.00, -1.00, 784.2, 11.1)">r</text><text xml:space="preserve" font-family="Cantarell-Regular,Cantarell" font-size="36.0" fill="#A6AAA8" transform="matrix(1.00, 0.00, -0.00, -1.00, 798.2, 11.1)">r</text><text xml:space="preserve" font-family="Cantarell-Regular,Cantarell" font-size="36.0" fill="#A6AAA8" transform="matrix(1.00, 0.00, -0.00, -1.00, 812.3, 11.1)">a</text><text xml:space="preserve" font-family="Cantarell-Regular,Cantarell" font-size="36.0" fill="#A6AAA8" transform="matrix(1.00, 0.00, -0.00, -1.00, 831.1, 11.1)">y</text><text xml:space="preserve" font-family="Cantarell-Regular,Cantarell" font-size="36.0" fill="#A6AAA8" transform="matrix(1.00, 0.00, -0.00, -1.00, 849.7, 11.1)"> </text><text xml:space="preserve" font-family="Cantarell-Regular,Cantarell" font-size="36.0" fill="#A6AAA8" transform="matrix(1.00, 0.00, -0.00, -1.00, 859.6, 11.1)">k</text><text xml:space="preserve" font-family="Cantarell-Regular,Cantarell" font-size="36.0" fill="#A6AAA8" transform="matrix(1.00, 0.00, -0.00, -1.00, 878.5, 11.1)">e</text><text xml:space="preserve" font-family="Cantarell-Regular,Cantarell" font-size="36.0" fill="#A6AAA8" transform="matrix(1.00, 0.00, -0.00, -1.00, 897.8, 11.1)">y</text><text xml:space="preserve" font-family="Cantarell-Regular,Cantarell" font-size="36.0" fill="#A6AAA8" transform="matrix(1.00, 0.00, -0.00, -1.00, 916.4, 11.1)">s</text></g></svg>