<?xml version="1.0" encoding="UTF-8" standalone="no"?><svg xmlns="http://www.w3.org/2000/svg" xmlns:xlink="http://www.w3.org/1999/xlink" clip-rule="evenodd" stroke-miterlimit="10" viewBox="0 0 631 51"><desc>SVG generated by Keynote</desc><defs></defs><g transform="matrix(1.00, 0.00, -0.00, -1.00, 0.0, 51.0)"><text xml:space="preserve" font-family="Cantarell-Bold,Cantarell" font-weight="bold" font-size="36.0" fill="#DFDFDF" transform="matrix(1.00, 0.00, -0.00, -1.00, 0.3, 12.7)">•</text><text xml:space="preserve" font-family="Cantarell-Bold,Cantarell" font-weight="bold" font-size="36.0" fill="#DFDFDF" transform="matrix(1.00, 0.00, -0.00, -1.00, 18.3, 12.4)">f</text><text xml:space="preserve" font-family="Cantarell-Bold,Cantarell" font-weight="bold" font-size="36.0" fill="#DFDFDF" transform="matrix(1.00, 0.00, -0.00, -1.00, 35.6, 12.4)">i</text><text xml:space="preserve" font-family="Cantarell-Bold,Cantarell" font-weight="bold" font-size="36.0" fill="#DFDFDF" transform="matrix(1.00, 0.00, -0.00, -1.00, 46.2, 12.4)">l</text><text xml:space="preserve" font-family="Cantarell-Bold,Cantarell" font-weight="bold" font-size="36.0" fill="#DFDFDF" transform="matrix(1.00, 0.00, -0.00, -1.00, 57.6, 12.4)">e</text><text xml:space="preserve" font-family="Cantarell-Regular,Cantarell" font-size="36.0" fill="#DFDFDF" transform="matrix(1.00, 0.00, -0.00, -1.00, 79.8, 12.4)"> </text><text xml:space="preserve" font-family="Cantarell-Regular,Cantarell" font-size="36.0" fill="#DFDFDF" transform="matrix(1.00, 0.00, -0.00, -1.00, 89.7, 12.4)">-</text><text xml:space="preserve" font-family="Cantarell-Regular,Cantarell" font-size="36.0" fill="#DFDFDF" transform="matrix(1.00, 0.00, -0.00, -1.00, 111.0, 12.4)"> </text><text xml:space="preserve" font-family="Cantarell-Regular,Cantarell" font-size="36.0" fill="#DFDFDF" transform="matrix(1.00, 0.00, -0.00, -1.00, 120.8, 12.4)">s</text><text xml:space="preserve" font-family="Cantarell-Regular,Cantarell" font-size="36.0" fill="#DFDFDF" transform="matrix(1.00, 0.00, -0.00, -1.00, 138.7, 12.4)">t</text><text xml:space="preserve" font-family="Cantarell-Regular,Cantarell" font-size="36.0" fill="#DFDFDF" transform="matrix(1.00, 0.00, -0.00, -1.00, 152.3, 12.4)">o</text><text xml:space="preserve" font-family="Cantarell-Regular,Cantarell" font-size="36.0" fill="#DFDFDF" transform="matrix(1.00, 0.00, -0.00, -1.00, 173.6, 12.4)">r</text><text xml:space="preserve" font-family="Cantarell-Regular,Cantarell" font-size="36.0" fill="#DFDFDF" transform="matrix(1.00, 0.00, -0.00, -1.00, 187.7, 12.4)">e</text><text xml:space="preserve" font-family="Cantarell-Regular,Cantarell" font-size="36.0" fill="#DFDFDF" transform="matrix(1.00, 0.00, -0.00, -1.00, 207.1, 12.4)">d</text><text xml:space="preserve" font-family="Cantarell-Regular,Cantarell" font-size="36.0" fill="#DFDFDF" transform="matrix(1.00, 0.00, -0.00, -1.00, 228.0, 12.4)"> </text><text xml:space="preserve" font-family="Cantarell-Regular,Cantarell" font-size="36.0" fill="#DFDFDF" transform="matrix(1.00, 0.00, -0.00, -1.00, 237.9, 12.4)">i</text><text xml:space="preserve" font-family="Cantarell-Regular,Cantarell" font-size="36.0" fill="#DFDFDF" transform="matrix(1.00, 0.00, -0.00, -1.00, 247.0, 12.4)">n</text><text xml:space="preserve" font-family="Cantarell-Regular,Cantarell" font-size="36.0" fill="#DFDFDF" transform="matrix(1.00, 0.00, -0.00, -1.00, 267.7, 12.4)"> </text><text xml:space="preserve" font-family="Cantarell-Oblique,Cantarell" font-style="italic" font-size="36.0" fill="#DFDFDF" transform="matrix(1.00, 0.00, -0.00, -1.00, 277.5, 12.4)">a</text><text xml:space="preserve" font-family="Cantarell-Oblique,Cantarell" font-style="italic" font-size="36.0" fill="#DFDFDF" transform="matrix(1.00, 0.00, -0.00, -1.00, 296.1, 12.4)">p</text><text xml:space="preserve" font-family="Cantarell-Oblique,Cantarell" font-style="italic" font-size="36.0" fill="#DFDFDF" transform="matrix(1.00, 0.00, -0.00, -1.00, 316.5, 12.4)">p</text><text xml:space="preserve" font-family="Cantarell-Oblique,Cantarell" font-style="italic" font-size="36.0" fill="#DFDFDF" transform="matrix(1.00, 0.00, -0.00, -1.00, 336.9, 12.4)">/</text><text xml:space="preserve" font-family="Cantarell-Oblique,Cantarell" font-style="italic" font-size="36.0" fill="#DFDFDF" transform="matrix(1.00, 0.00, -0.00, -1.00, 349.7, 12.4)">s</text><text xml:space="preserve" font-family="Cantarell-Oblique,Cantarell" font-style="italic" font-size="36.0" fill="#DFDFDF" transform="matrix(1.00, 0.00, -0.00, -1.00, 367.4, 12.4)">t</text><text xml:space="preserve" font-family="Cantarell-Oblique,Cantarell" font-style="italic" font-size="36.0" fill="#DFDFDF" transform="matrix(1.00, 0.00, -0.00, -1.00, 380.8, 12.4)">o</text><text xml:space="preserve" font-family="Cantarell-Oblique,Cantarell" font-style="italic" font-size="36.0" fill="#DFDFDF" transform="matrix(1.00, 0.00, -0.00, -1.00, 401.8, 12.4)">r</text><text xml:space="preserve" font-family="Cantarell-Oblique,Cantarell" font-style="italic" font-size="36.0" fill="#DFDFDF" transform="matrix(1.00, 0.00, -0.00, -1.00, 415.7, 12.4)">a</text><text xml:space="preserve" font-family="Cantarell-Oblique,Cantarell" font-style="italic" font-size="36.0" fill="#DFDFDF" transform="matrix(1.00, 0.00, -0.00, -1.00, 434.3, 12.4)">g</text><text xml:space="preserve" font-family="Cantarell-Oblique,Cantarell" font-style="italic" font-size="36.0" fill="#DFDFDF" transform="matrix(1.00, 0.00, -0.00, -1.00, 454.7, 12.4)">e</text><text xml:space="preserve" font-family="Cantarell-Oblique,Cantarell" font-style="italic" font-size="36.0" fill="#DFDFDF" transform="matrix(1.00, 0.00, -0.00, -1.00, 473.8, 12.4)">/</text><text xml:space="preserve" font-family="Cantarell-Oblique,Cantarell" font-style="italic" font-size="36.0" fill="#DFDFDF" transform="matrix(1.00, 0.00, -0.00, -1.00, 486.6, 12.4)">s</text><text xml:space="preserve" font-family="Cantarell-Oblique,Cantarell" font-style="italic" font-size="36.0" fill="#DFDFDF" transform="matrix(1.00, 0.00, -0.00, -1.00, 504.3, 12.4)">e</text><text xml:space="preserve" font-family="Cantarell-Oblique,Cantarell" font-style="italic" font-size="36.0" fill="#DFDFDF" transform="matrix(1.00, 0.00, -0.00, -1.00, 523.4, 12.4)">s</text><text xml:space="preserve" font-family="Cantarell-Oblique,Cantarell" font-style="italic" font-size="36.0" fill="#DFDFDF" transform="matrix(1.00, 0.00, -0.00, -1.00, 541.1, 12.4)">s</text><text xml:space="preserve" font-family="Cantarell-Oblique,Cantarell" font-style="italic" font-size="36.0" fill="#DFDFDF" transform="matrix(1.00, 0.00, -0.00, -1.00, 558.7, 12.4)">i</text><text xml:space="preserve" font-family="Cantarell-Oblique,Cantarell" font-style="italic" font-size="36.0" fill="#DFDFDF" transform="matrix(1.00, 0.00, -0.00, -1.00, 567.9, 12.4)">o</text><text xml:space="preserve" font-family="Cantarell-Oblique,Cantarell" font-style="italic" font-size="36.0" fill="#DFDFDF" transform="matrix(1.00, 0.00, -0.00, -1.00, 589.0, 12.4)">n</text><text xml:space="preserve" font-family="Cantarell-Oblique,Cantarell" font-style="italic" font-size="36.0" fill="#DFDFDF" transform="matrix(1.00, 0.00, -0.00, -1.00, 609.4, 12.4)">s</text></g></svg>